<svg width="306" height="325" viewBox="0 0 306 325" fill="none" xmlns="http://www.w3.org/2000/svg">
<circle cx="10.772" cy="198.778" r="1.93485" fill="white" fill-opacity="0.3"/>
<circle cx="17.544" cy="108.808" r="1.93485" fill="white" fill-opacity="0.3"/>
<circle cx="74.6222" cy="38.1857" r="1.93485" fill="white" fill-opacity="0.3"/>
<circle cx="161.691" cy="15.9349" r="1.93485" fill="white" fill-opacity="0.3"/>
<circle cx="245.857" cy="49.7948" r="1.93485" fill="white" fill-opacity="0.3"/>
<circle cx="294.228" cy="126.221" r="1.93485" fill="white" fill-opacity="0.3"/>
<circle cx="287.456" cy="216.192" r="1.93485" fill="white" fill-opacity="0.3"/>
<circle cx="231.345" cy="286.814" r="1.93485" fill="white" fill-opacity="0.3"/>
<circle cx="144.277" cy="309.065" r="1.93485" fill="white" fill-opacity="0.3"/>
<circle cx="58.1759" cy="276.173" r="1.93485" fill="white" fill-opacity="0.3"/>
<path d="M11.4932 109L10.9023 107.354H7.79199L7.20605 109H6.29297L8.82715 102.125H9.87207L12.4062 109H11.4932ZM8.07031 106.583H10.6289L9.34961 103.004L8.07031 106.583Z" fill="white"/>
<path d="M71.3408 28.4111C71.7607 28.5186 72.0911 28.7188 72.332 29.0117C72.5762 29.3014 72.6982 29.6758 72.6982 30.1348C72.6982 30.6882 72.5208 31.1374 72.166 31.4824C71.8145 31.8275 71.3441 32 70.7549 32H68.0791V25.125H70.1641C70.7728 25.125 71.2627 25.2943 71.6338 25.6328C72.0081 25.9681 72.1953 26.4059 72.1953 26.9463C72.1953 27.2783 72.1204 27.5729 71.9707 27.8301C71.8242 28.0872 71.6143 28.2809 71.3408 28.4111ZM71.375 27C71.375 26.6777 71.2643 26.4124 71.043 26.2041C70.8249 25.9958 70.5303 25.8916 70.1592 25.8916H68.9238V28.1377H70.3203C70.6296 28.1377 70.8818 28.0286 71.0771 27.8105C71.2757 27.5892 71.375 27.319 71.375 27ZM70.6084 31.2236C70.9893 31.2236 71.2904 31.1113 71.5117 30.8867C71.7363 30.6589 71.8486 30.3789 71.8486 30.0469C71.8486 29.7018 71.7314 29.4186 71.4971 29.1973C71.266 28.9727 70.9486 28.8604 70.5449 28.8604H68.9238V31.2236H70.6084Z" fill="white"/>
<path d="M163.023 10.0928C162.538 10.0928 162.088 10.0114 161.671 9.84863C161.254 9.68262 160.891 9.4515 160.582 9.15527C160.276 8.85579 160.035 8.48307 159.859 8.03711C159.687 7.59115 159.601 7.09798 159.601 6.55762C159.601 6.02051 159.688 5.5306 159.864 5.08789C160.04 4.64193 160.281 4.26921 160.587 3.96973C160.893 3.67025 161.254 3.43913 161.671 3.27637C162.088 3.11361 162.538 3.03223 163.023 3.03223C163.704 3.03223 164.312 3.19336 164.85 3.51562C165.39 3.83789 165.794 4.28548 166.061 4.8584L165.255 5.19043C165.047 4.76725 164.745 4.44173 164.352 4.21387C163.961 3.98275 163.518 3.86719 163.023 3.86719C162.665 3.86719 162.332 3.92741 162.022 4.04785C161.713 4.16829 161.443 4.34082 161.212 4.56543C160.981 4.79004 160.799 5.07324 160.665 5.41504C160.535 5.75684 160.47 6.1377 160.47 6.55762C160.47 6.97754 160.535 7.36003 160.665 7.70508C160.799 8.04688 160.981 8.33008 161.212 8.55469C161.443 8.7793 161.713 8.95345 162.022 9.07715C162.332 9.19759 162.665 9.25781 163.023 9.25781C163.518 9.25781 163.961 9.14388 164.352 8.91602C164.745 8.6849 165.047 8.35938 165.255 7.93945L166.061 8.2666C165.794 8.84277 165.392 9.29199 164.854 9.61426C164.317 9.93327 163.707 10.0928 163.023 10.0928Z" fill="white"/>
<path d="M251.079 44V37.125H253.296C253.979 37.125 254.562 37.2731 255.044 37.5693C255.529 37.8656 255.887 38.2692 256.118 38.7803C256.353 39.2881 256.47 39.8805 256.47 40.5576C256.47 41.0654 256.401 41.5293 256.265 41.9492C256.131 42.3659 255.934 42.7272 255.674 43.0332C255.413 43.3392 255.08 43.5768 254.673 43.7461C254.269 43.9154 253.81 44 253.296 44H251.079ZM251.953 43.2041H253.267C254.025 43.2041 254.596 42.9697 254.98 42.501C255.368 42.0322 255.562 41.3844 255.562 40.5576C255.562 39.7373 255.368 39.0928 254.98 38.624C254.593 38.1553 254.022 37.9209 253.267 37.9209H251.953V43.2041Z" fill="white"/>
<path d="M304.766 122.921H301.973V125.172H304.434V125.958H301.973V128.204H304.766V129H301.079V122.125H304.766V122.921Z" fill="white"/>
<path d="M296.795 216.921H293.973V219.167H296.434V219.958H293.973V223H293.079V216.125H296.795V216.921Z" fill="white"/>
<path d="M236.999 301.093C236.521 301.093 236.073 301.013 235.656 300.854C235.243 300.691 234.883 300.463 234.577 300.17C234.274 299.874 234.035 299.504 233.859 299.062C233.687 298.616 233.601 298.122 233.601 297.582C233.601 296.859 233.752 296.226 234.055 295.683C234.357 295.139 234.766 294.729 235.28 294.452C235.795 294.172 236.376 294.032 237.023 294.032C237.655 294.032 238.226 294.169 238.737 294.442C239.248 294.716 239.65 295.113 239.943 295.634L239.172 296.049C238.954 295.648 238.658 295.347 238.283 295.146C237.909 294.94 237.489 294.838 237.023 294.838C236.665 294.838 236.332 294.898 236.022 295.019C235.713 295.139 235.443 295.313 235.212 295.541C234.984 295.766 234.805 296.052 234.675 296.4C234.545 296.749 234.479 297.138 234.479 297.567C234.479 297.994 234.543 298.38 234.67 298.725C234.8 299.07 234.979 299.358 235.207 299.589C235.438 299.817 235.71 299.993 236.022 300.116C236.338 300.237 236.68 300.297 237.048 300.297C237.679 300.297 238.203 300.119 238.62 299.765C239.04 299.407 239.287 298.897 239.362 298.236H237.043V297.494H240.217V301H239.499V299.711C239.271 300.154 238.942 300.495 238.513 300.736C238.086 300.974 237.582 301.093 236.999 301.093Z" fill="white"/>
<path d="M145.439 316.125H146.313V323H145.439V319.948H141.958V323H141.079V316.125H141.958V319.162H145.439V316.125Z" fill="white"/>
<path d="M52.0791 290V283.125H52.9531V290H52.0791Z" fill="white"/>
<path d="M1.74316 205.093C1.22559 205.093 0.724284 204.958 0.239258 204.688L0.620117 203.945C0.948893 204.17 1.30208 204.282 1.67969 204.282C2.05404 204.282 2.34538 204.157 2.55371 203.906C2.7653 203.652 2.87109 203.302 2.87109 202.856V198.125H3.74512V203.008C3.74512 203.652 3.56283 204.162 3.19824 204.536C2.83366 204.907 2.34863 205.093 1.74316 205.093Z" fill="white"/>
</svg>
