<svg width="325" height="343" viewBox="0 0 325 343" fill="none" xmlns="http://www.w3.org/2000/svg">
<circle cx="22.154" cy="216.114" r="1.93485" transform="rotate(-3.37335 22.154 216.114)" fill="white" fill-opacity="0.3"/>
<circle cx="23.6202" cy="125.901" r="1.93485" transform="rotate(-3.37335 23.6202 125.901)" fill="white" fill-opacity="0.3"/>
<circle cx="76.4439" cy="52.0424" r="1.93485" transform="rotate(-3.37335 76.4439 52.0424)" fill="white" fill-opacity="0.3"/>
<circle cx="162.052" cy="24.7068" r="1.93485" transform="rotate(-3.37335 162.052 24.7068)" fill="white" fill-opacity="0.3"/>
<circle cx="248.065" cy="53.5556" r="1.93485" transform="rotate(-3.37335 248.065 53.5556)" fill="white" fill-opacity="0.3"/>
<circle cx="300.849" cy="127.004" r="1.93485" transform="rotate(-3.37335 300.849 127.004)" fill="white" fill-opacity="0.3"/>
<circle cx="299.383" cy="217.217" r="1.93485" transform="rotate(-3.37335 299.383 217.217)" fill="white" fill-opacity="0.3"/>
<circle cx="247.525" cy="291.018" r="1.93485" transform="rotate(-3.37335 247.525 291.018)" fill="white" fill-opacity="0.3"/>
<circle cx="161.917" cy="318.354" r="1.93485" transform="rotate(-3.37335 161.917 318.354)" fill="white" fill-opacity="0.3"/>
<circle cx="74.0298" cy="290.585" r="1.93485" transform="rotate(-3.37335 74.0298 290.585)" fill="white" fill-opacity="0.3"/>
<path d="M16.1294 126.628C15.6453 126.656 15.1904 126.602 14.7649 126.464C14.3392 126.323 13.9632 126.113 13.6371 125.836C13.314 125.555 13.0516 125.197 12.8499 124.762C12.6514 124.327 12.5363 123.84 12.5045 123.3C12.4729 122.764 12.5318 122.27 12.6812 121.818C12.8305 121.362 13.049 120.976 13.3368 120.659C13.6247 120.342 13.9718 120.09 14.3782 119.903C14.7845 119.716 15.2298 119.608 15.714 119.58C16.3931 119.539 17.0103 119.665 17.5654 119.955C18.1238 120.245 18.5531 120.668 18.8533 121.224L18.0686 121.603C17.8357 121.193 17.5159 120.885 17.1093 120.681C16.7058 120.473 16.2571 120.384 15.7631 120.413C15.4057 120.434 15.0761 120.514 14.7745 120.652C14.4729 120.791 14.2133 120.979 13.9958 121.217C13.7783 121.454 13.613 121.748 13.4999 122.097C13.39 122.446 13.3474 122.83 13.3721 123.249C13.3968 123.668 13.4843 124.046 13.6346 124.383C13.788 124.716 13.9866 124.988 14.2306 125.199C14.4745 125.41 14.7545 125.568 15.0704 125.673C15.3862 125.775 15.7229 125.815 16.0803 125.794C16.5742 125.765 17.0095 125.625 17.386 125.375C17.7656 125.121 18.0471 124.778 18.2303 124.347L19.0538 124.626C18.8213 125.217 18.4464 125.689 17.9292 126.042C17.4118 126.392 16.8119 126.588 16.1294 126.628Z" fill="white"/>
<path d="M72.5931 42.4779C73.0186 42.5604 73.3602 42.7408 73.6179 43.0191C73.8787 43.2939 74.0226 43.6604 74.0496 44.1186C74.0822 44.6711 73.9315 45.1299 73.5976 45.4953C73.2669 45.8604 72.8075 46.0603 72.2194 46.095L69.5482 46.2524L69.1437 39.3893L71.225 39.2667C71.8327 39.2308 72.3317 39.371 72.7221 39.6871C73.1155 39.9998 73.3281 40.4258 73.3599 40.9653C73.3795 41.2967 73.3221 41.5952 73.1877 41.8607C73.0566 42.1261 72.8584 42.3318 72.5931 42.4779ZM72.5442 41.0672C72.5252 40.7454 72.3991 40.4871 72.1659 40.2922C71.9359 40.097 71.6357 40.0104 71.2653 40.0322L70.032 40.1049L70.1642 42.3471L71.5583 42.2649C71.867 42.2467 72.1124 42.123 72.2945 41.8938C72.4797 41.6612 72.563 41.3856 72.5442 41.0672ZM72.0274 45.3286C72.4076 45.3062 72.7016 45.1763 72.9094 44.9391C73.1202 44.6984 73.2158 44.4123 73.1963 44.0809C73.176 43.7364 73.0423 43.4606 72.7953 43.2534C72.5514 43.0428 72.228 42.9494 71.825 42.9731L70.2067 43.0685L70.3458 45.4277L72.0274 45.3286Z" fill="white"/>
<path d="M164.501 18.6173L163.814 17.0094L160.709 17.1925L160.221 18.8696L159.31 18.9233L161.435 11.9111L162.478 11.8496L165.412 18.5636L164.501 18.6173ZM160.942 16.4059L163.496 16.2554L162.008 12.7578L160.942 16.4059Z" fill="white"/>
<path d="M253.606 47.5171C253.089 47.5476 252.581 47.4422 252.08 47.2011L252.417 46.4378C252.758 46.6426 253.118 46.734 253.495 46.7117C253.868 46.6897 254.152 46.5475 254.345 46.285C254.541 46.0191 254.626 45.6635 254.6 45.2183L254.322 40.4951L255.194 40.4436L255.481 45.318C255.519 45.9614 255.367 46.4807 255.025 46.8759C254.683 47.2678 254.21 47.4815 253.606 47.5171Z" fill="white"/>
<path d="M307.852 129.374L307.448 122.511L308.32 122.46L308.725 129.323L307.852 129.374Z" fill="white"/>
<path d="M309.345 216.562L310.218 216.511L310.623 223.374L309.75 223.425L309.57 220.379L306.095 220.584L306.275 223.63L305.397 223.682L304.993 216.819L305.87 216.767L306.049 219.799L309.524 219.594L309.345 216.562Z" fill="white"/>
<path d="M254.009 304.939C253.532 304.967 253.08 304.914 252.655 304.78C252.233 304.641 251.86 304.435 251.537 304.161C251.218 303.883 250.957 303.528 250.756 303.096C250.557 302.661 250.442 302.174 250.41 301.635C250.368 300.913 250.482 300.272 250.752 299.712C251.022 299.151 251.406 298.718 251.903 298.411C252.4 298.102 252.972 297.928 253.618 297.89C254.249 297.852 254.827 297.955 255.353 298.198C255.88 298.441 256.304 298.814 256.627 299.317L255.882 299.776C255.64 299.389 255.327 299.106 254.941 298.927C254.556 298.744 254.13 298.666 253.666 298.694C253.308 298.715 252.979 298.795 252.677 298.933C252.376 299.072 252.116 299.261 251.899 299.502C251.684 299.74 251.523 300.036 251.413 300.392C251.304 300.747 251.262 301.139 251.287 301.568C251.312 301.994 251.398 302.375 251.545 302.712C251.695 303.049 251.891 303.326 252.132 303.543C252.376 303.757 252.658 303.917 252.977 304.022C253.299 304.124 253.644 304.164 254.011 304.142C254.642 304.105 255.155 303.897 255.55 303.518C255.948 303.136 256.165 302.613 256.201 301.949L253.885 302.085L253.842 301.344L257.01 301.158L257.216 304.657L256.5 304.7L256.424 303.413C256.222 303.868 255.914 304.229 255.5 304.494C255.088 304.757 254.591 304.905 254.009 304.939Z" fill="white"/>
<path d="M162.896 326.166L160.079 326.332L160.211 328.574L162.668 328.429L162.714 329.219L160.258 329.363L160.437 332.4L159.545 332.453L159.14 325.59L162.85 325.371L162.896 326.166Z" fill="white"/>
<path d="M72.0796 298.461L69.2915 298.626L69.424 300.873L71.8806 300.728L71.9269 301.513L69.4702 301.658L69.6024 303.9L72.3905 303.735L72.4373 304.53L68.7572 304.747L68.3527 297.884L72.0328 297.667L72.0796 298.461Z" fill="white"/>
<path d="M12.844 222.895L12.4395 216.032L14.6524 215.902C15.3348 215.861 15.9252 215.975 16.4236 216.242C16.9252 216.509 17.3064 216.891 17.5672 217.388C17.831 217.881 17.9829 218.466 18.0227 219.142C18.0526 219.648 18.0117 220.116 17.8999 220.543C17.7912 220.967 17.6158 221.339 17.3739 221.66C17.1319 221.98 16.8128 222.237 16.4166 222.43C16.0236 222.623 15.5704 222.734 15.0569 222.765L12.844 222.895ZM13.6697 222.049L14.9809 221.972C15.738 221.927 16.2945 221.66 16.6504 221.169C17.0095 220.678 17.1647 220.02 17.1161 219.195C17.0678 218.376 16.8365 217.744 16.4223 217.299C16.008 216.854 15.4239 216.653 14.67 216.698L13.3588 216.775L13.6697 222.049Z" fill="white"/>
</svg>
